<svg xmlns="http://www.w3.org/2000/svg" width="966" height="859" viewBox="0 0 966 859">
  <defs>
    <style>
      .cls-1 {
        fill: #017487;
      }

      .cls-2 {
        fill: #fff;
      }

      .cls-3 {
        fill: #aa755e;
      }

      .cls-4 {
        fill: #e7dedc;
      }

      .cls-5 {
        fill: #002533;
      }
    </style>
  </defs>
  <g id="_3" data-name="3" transform="translate(-354.771 42.726)">
    <g id="Groupe_22" data-name="Groupe 22" transform="translate(431.504 87.574)">
      <rect id="Rectangle_1" data-name="Rectangle 1" class="cls-1" width="966" height="859" rx="50" transform="translate(-76.733 -130.3)"/>
      <path id="Tracé_63" data-name="Tracé 63" class="cls-2" d="M884.541,125.486c-118.778.933-214.754,42.906-214.39,93.479.281,30.359,34.991,56.923,88.361,73.009,35.8,10.95,79.813,17.2,127.7,16.809a469.194,469.194,0,0,0,68.492-5.481l.626,3.578c27.829,163.1,30.02,323.636-9.851,351.925l.108.339a281.359,281.359,0,0,1-56.226,5.865,289.266,289.266,0,0,1-69.329-7.583C709.748,632.016,627.251,544.907,620.9,439.341a119.49,119.49,0,0,1-68.6,22.788c-65.2.5-118.771-51.972-119.167-117.27A118.21,118.21,0,0,1,550.294,225.577a116.959,116.959,0,0,1,68.269,21.191l-.013-25.561c-.651-71.444,118.318-130.763,265.672-132,143-1.188,260.171,53.658,267.665,122.183l-1.757,15.154c-22.616-20.712-47.256-40.114-71.176-55.153-19.492-12.3-38.459-21.587-55.364-26.047a135.175,135.175,0,0,0-23.057-4.2M613.867,343.256a62.573,62.573,0,1,0-62.085,63.171A62.61,62.61,0,0,0,613.867,343.256Z" transform="translate(-422.759 -78.885)"/>
      <path id="Tracé_64" data-name="Tracé 64" class="cls-3" d="M697.391,247.823c-5.034.939-10.292,1.878-15.773,2.594a469.194,469.194,0,0,1-68.492,5.481c-47.889.4-91.9-5.858-127.7-16.809-9.545-43.794,23.242-78.663,96.941-118.12,70.754-37.878,170.833-20.048,223.519,3.214,23.919,15.039,48.541,28.762,71.157,49.474,9.6,8.5,18.757,17.2,27.35,26.021,44.74,45.442,57.472,78.523,41.75,92.814-20.6,18.725-38.025,26.558-65.611,1.648-21.626-19.7-41.577-39.488-53.939-32.946-18.77,9.915.249,32.818-12.2,45.832-17.307,18.195-40.191-8.216-59.983-31.464C735.825,253.784,725.112,244.61,697.391,247.823Z" transform="translate(-149.668 -26.001)"/>
      <path id="Tracé_65" data-name="Tracé 65" class="cls-4" d="M800.867,108.315l-.255,2.23c-47.027-5.954-94.418,8.062-134.679,31.209-56.552,32.205-114.746,69.4-107.342,119.627-53.371-16.087-88.08-42.651-88.361-73.009-.364-50.572,95.612-92.546,214.39-93.479C727.372,94.433,767.269,99.4,800.867,108.315Z" transform="translate(-222.836 -48.292)"/>
      <path id="Tracé_66" data-name="Tracé 66" class="cls-4" d="M721.46,169.14l.7,76.472-.019,1.335c.057,4.133-.1,8.261-.377,12.273-1.661,33.579-11.327,65.266-26.871,93.868-24.111,43.781-62.641,80.011-110.268,103.739a278.9,278.9,0,0,1-71.189,24.43l-.108-.339c39.871-28.289,37.68-188.829,9.851-351.925l-.626-3.578c5.482-.716,10.74-1.655,15.773-2.594,27.721-3.214,38.435,5.961,57.019,27.739,19.792,23.248,42.676,49.659,59.983,31.464,12.445-13.014-6.574-35.917,12.2-45.832C679.883,129.651,699.835,149.443,721.46,169.14Z" transform="translate(9.399 99)"/>
      <path id="Tracé_67" data-name="Tracé 67" class="cls-5" d="M470.83,240.239a10.3,10.3,0,0,1-10.292-10.2C459.88,151.539,581.1,88.975,736.515,87.6c152.8-1.527,277.676,60.916,278.366,138.787a10.3,10.3,0,0,1-10.2,10.382h-.1a10.294,10.294,0,0,1-10.292-10.2C993.722,161.9,878.343,108.166,741.3,108.166c-1.534,0-3.054.006-4.6.019-139.087,1.227-256.121,56.948-255.571,121.672a10.3,10.3,0,0,1-10.209,10.382Z" transform="translate(-275.065 -87.574)"/>
      <path id="Tracé_68" data-name="Tracé 68" class="cls-5" d="M690.388,218.229c-57.127,0-110.894-9.3-151.832-26.3-44.849-18.629-69.681-44.784-69.93-73.661a10.29,10.29,0,0,1,10.209-10.375h.083a10.3,10.3,0,0,1,10.3,10.2c.166,19.8,21.031,39.788,57.236,54.821,39.533,16.425,92.233,25.261,148.37,24.711a464.239,464.239,0,0,0,82.5-7.832,10.293,10.293,0,0,1,3.833,20.226,484.529,484.529,0,0,1-86.157,8.184C693.454,218.223,691.915,218.229,690.388,218.229Z" transform="translate(-231.474 21.909)"/>
      <path id="Tracé_69" data-name="Tracé 69" class="cls-5" d="M895.446,572.574c-140.684.007-257.545-94.251-274.4-218.408a127.334,127.334,0,0,1-59.926,15.48c-.37,0-.741.006-1.111.006a128.526,128.526,0,0,1-1.08-257.047A126.988,126.988,0,0,1,617.01,125.97l-.032-7.392a10.3,10.3,0,0,1,10.26-10.33h.032a10.3,10.3,0,0,1,10.3,10.254l.089,25.484a10.293,10.293,0,0,1-16.151,8.5A107.868,107.868,0,0,0,452.1,242.071c.511,59.5,49.371,107.706,108.843,106.991a107.063,107.063,0,0,0,62.628-20.821,10.294,10.294,0,0,1,16.355,7.686C647.279,457.5,759.291,551.99,895.446,551.99c.843,0,1.668,0,2.517-.006,68.786-.594,133.2-25.107,181.38-69.023,47.857-43.628,73.917-101.215,73.38-162.157l-.748-69.464a10.293,10.293,0,0,1,10.184-10.394h.115a10.3,10.3,0,0,1,10.292,10.177l.741,69.483c.594,66.889-27.854,129.945-80.1,177.572-51.92,47.333-121.205,73.75-195.071,74.383C897.241,572.574,896.341,572.574,895.446,572.574Z" transform="translate(-431.504 23.833)"/>
      <path id="Tracé_70" data-name="Tracé 70" class="cls-5" d="M513.044,263.42a72.9,72.9,0,1,1,72.945-73.508h0A73.038,73.038,0,0,1,513.7,263.42Zm.064-125.2h-.492a52.311,52.311,0,0,0,.428,104.62h.473a52.419,52.419,0,0,0,51.889-52.751h0a52.293,52.293,0,0,0-52.3-51.869Z" transform="translate(-384.557 74.426)"/>
      <path id="Tracé_71" data-name="Tracé 71" class="cls-5" d="M931.1,335.088c-22.22,0-42.708-19.358-57.939-33.738-9.513-8.976-23.88-22.565-28.685-20.009-3.309,1.744-3.968,3.233-2.856,13.876.914,8.695,2.153,20.6-6.849,29.995-5.948,6.223-13.218,9.436-21.051,9.193-19.434-.524-37.105-21.153-54.188-41.1-18.489-21.645-25.778-28.251-55.568-23.287a10.294,10.294,0,0,1-3.38-20.31c38.5-6.414,52.923,4.849,74.587,30.212,11.468,13.391,28.807,33.63,39.1,33.9,1.367.026,3.143-.262,5.622-2.849,2.179-2.268,2.038-6.076,1.246-13.621-1-9.564-2.671-25.567,13.71-34.218,17.8-9.423,35.419,7.174,52.444,23.248,29.343,27.72,44.382,36.447,61.542,18.6,14.08-14.636-1.137-48.777-38.76-86.969-43.021-43.66-84.56-76.127-147.437-92.661C676.139,102.6,596.8,133.117,551.42,169.264,520.206,194.129,501.269,224.1,502,247.474a10.294,10.294,0,1,1-20.578.645c-.946-30.186,20.424-65.688,57.172-94.954C587.88,113.907,674,80.756,767.887,105.448c71.374,18.77,117.577,58.252,156.861,98.123,47.583,48.311,62.142,91.556,38.938,115.679C952.691,330.686,941.7,335.088,931.1,335.088Z" transform="translate(-162.654 -37.05)"/>
    </g>
  </g>
</svg>
